#!OML:ASF H:\Terrain\Patient Classification 1\Walking\liu\liu.ASF
:FULLY-SPECIFIED
:DEGREES
273
root 8.70615 17.1062 9.4247 6.06798 2.16442 -2.64494
lowerback -4.63626 -1.49845 0.147955
upperback -0.523221 -2.0871 3.5835
thorax 2.19035 -1.05609 3.47483
lowerneck -21.8335 -4.16996 -11.6226
upperneck 24.3026 -5.08496 11.2402
head 12.257 -1.9172 5.39786
rclavicle -1.63997e-015 1.59028e-014
rhumerus -34.1677 14.277 -86.5673
rradius 30.6215
rwrist -15.46
rhand -31.2479 -25.2911
rfingers 7.12502
rthumb -4.52255 -55.2229
lclavicle -1.63997e-015 1.59028e-014
lhumerus -25.7563 -10.3257 92.2415
lradius 22.2157
lwrist -3.14606
lhand -9.20531 -23.6012
lfingers 7.12502
lthumb 16.7488 5.6963
rfemur -16.3425 0.600004 28.8043
rtibia 27.2065
rfoot -15.3004 4.33214
rtoes -11.2981
lfemur -28.0429 11.7873 -18.9162
ltibia 69.806
lfoot -11.0974 13.9758
ltoes -6.57442
274
root 8.69832 17.0926 9.58471 6.10265 1.72543 -3.30096
lowerback -4.62253 -1.23718 0.745151
upperback -0.468581 -1.77338 3.72243
thorax 2.20633 -0.894786 3.30304
lowerneck -21.6115 -4.19683 -11.6578
upperneck 23.9965 -5.11103 11.2402
head 12.0981 -1.93592 5.38431
rclavicle 1.43622e-014 -3.81667e-014
rhumerus -33.3739 15.6346 -86.9778
rradius 31.1514
rwrist -16.1293
rhand -30.9307 -25.0126
rfingers 7.12502
rthumb -4.21624 -54.9506
lclavicle 1.43622e-014 -3.81667e-014
lhumerus -26.7174 -9.10559 91.9492
lradius 22.0165
lwrist -4.74735
lhand -9.03699 -23.6361
lfingers 7.12502
lthumb 16.9108 5.6477
rfemur -15.7474 1.38312 29.6491
rtibia 27.0165
rfoot -15.7836 3.66788
rtoes -12.0603
lfemur -29.6695 11.8692 -18.4494
ltibia 69.4906
lfoot -12.2162 13.7442
ltoes -6.03572
275
root 8.70103 17.089 9.74437 6.04111 1.36991 -3.3422
lowerback -4.54546 -1.01501 0.83332
upperback -0.395918 -1.48054 3.67474
thorax 2.21886 -0.747816 3.22395
lowerneck -21.175 -4.25354 -11.8679
upperneck 23.5936 -5.18224 11.4006
head 11.8776 -1.97668 5.45212
rclavicle 5.96354e-015 1.03368e-014
rhumerus -32.399 16.7693 -87.1915
rradius 31.4025
rwrist -16.575
rhand -30.3928 -25.0732
rfingers 7.12502
rthumb -3.69681 -55.0209
lclavicle 5.96354e-015 1.03368e-014
lhumerus -27.7682 -8.75787 91.9113
lradius 21.8481
lwrist -5.01637
lhand -9.0191 -23.4746
lfingers 7.12502
lthumb 16.928 5.80765
rfemur -15.0606 1.53785 29.788
rtibia 26.8952
rfoot -16.212 3.40159
rtoes -12.3658
lfemur -30.9479 11.8013 -18.7004
ltibia 68.9084
lfoot -12.8601 13.7258
ltoes -7.19177
276
root 8.7007 17.0781 9.90138 6.06956 1.11255 -3.66266
lowerback -4.4522 -0.817015 1.22177
upperback -0.392268 -1.23167 3.63379
thorax 2.14852 -0.619311 2.97977
lowerneck -21.3532 -4.30107 -11.7618
upperneck 23.7882 -5.28429 11.4056
head 11.9997 -2.0081 5.42786
rclavicle 1.32689e-014 -4.77083e-015
rhumerus -31.434 17.3831 -87.397
rradius 31.707
rwrist -16.5423
rhand -29.7991 -24.7141
rfingers 7.12502
rthumb -3.12343 -54.6709
lclavicle 1.32689e-014 -4.77083e-015
lhumerus -28.8122 -8.81862 91.8815
lradius 21.5196
lwrist -4.84569
lhand -8.96316 -23.0255
lfingers 7.12502
lthumb 16.9819 6.25215
rfemur -14.5721 1.88026 30.2376
rtibia 26.9683
rfoot -16.7941 3.12902
rtoes -12.2152
lfemur -32.4222 11.6724 -18.6214
ltibia 68.2966
lfoot -13.6701 13.8243
ltoes -11.1829
277
root 8.69381 17.0471 10.0383 6.16294 0.836374 -4.11826
lowerback -4.06711 -0.643545 1.57593
upperback -0.517129 -0.999009 3.71195
thorax 1.78939 -0.499646 2.87986
lowerneck -21.4344 -4.27749 -11.8032
upperneck 23.9194 -5.29743 11.6119
head 12.0767 -1.99062 5.52132
rclavicle 4.52235e-015 -6.36111e-015
rhumerus -30.8415 18.4356 -87.6932
rradius 32.4049
rwrist -17.0186
rhand -30.0794 -24.2212
rfingers 7.12502
rthumb -3.3941 -54.1739
lclavicle 4.52235e-015 -6.36111e-015
lhumerus -29.9199 -8.46972 91.8292
lradius 21.1231
lwrist -5.56956
lhand -9.44115 -23.1496
lfingers 7.12502
lthumb 16.5218 6.16702
rfemur -14.1217 2.90053 30.8471
rtibia 27.0034
rfoot -17.515 2.47638
rtoes -10.4709
lfemur -34.1064 11.5156 -18.3319
ltibia 67.4311
lfoot -14.7466 13.0299
ltoes -11.6707
278
root 8.67391 17.0017 10.1303 6.20751 0.490402 -4.34452
lowerback -3.11087 -0.470512 1.39221
upperback -0.707004 -0.719101 3.91247
thorax 1.05228 -0.359567 3.21305
lowerneck -21.1699 -4.32436 -12.1841
upperneck 23.658 -5.30083 11.824
head 11.9425 -2.00734 5.65801
rclavicle -3.926e-015 -1.74931e-014
rhumerus -30.2628 19.5691 -87.6675
rradius 33.3069
rwrist -17.4607
rhand -30.9165 -24.4921
rfingers 7.12502
rthumb -4.20253 -54.4304
lclavicle -3.926e-015 -1.74931e-014
lhumerus -31.1018 -8.84058 92.2737
lradius 20.8598
lwrist -5.6642
lhand -10.5884 -23.4383
lfingers 7.12502
lthumb 15.417 5.96682
rfemur -13.7984 4.63978 31.2978
rtibia 26.9698
rfoot -18.2421 0.894531
rtoes -10.2229
lfemur -35.9458 11.301 -18.2205
ltibia 66.311
lfoot -13.6644 14.0118
ltoes -5.93133
279
root 8.69136 17.018 10.3472 6.17707 0.236253 -4.20695
lowerback -3.64573 -0.39061 1.38992
upperback -0.514442 -0.640906 3.89408
thorax 1.54615 -0.322211 3.19546
lowerneck -21.0255 -4.3527 -12.3602
upperneck 23.4087 -5.25207 11.7406
head 11.8135 -2.01433 5.65148
rclavicle 5.71506e-015 -2.14687e-014
rhumerus -29.4832 20.6269 -87.6015
rradius 34.0645
rwrist -17.6281
rhand -30.9823 -25.4715
rfingers 7.12502
rthumb -4.26602 -55.4086
lclavicle 5.71506e-015 -2.14687e-014
lhumerus -32.1831 -9.07659 92.5986
lradius 20.6794
lwrist -4.94318
lhand -10.6009 -23.3189
lfingers 7.12502
lthumb 15.4049 6.08709
rfemur -12.6927 3.49408 31.1642
rtibia 26.6854
rfoot -18.595 1.68429
rtoes -13.5707
lfemur -36.3069 10.8186 -18.5876
ltibia 64.6132
lfoot -14.5241 14.2338
ltoes -7.15555
280
root 8.71395 17.0293 10.5456 6.16009 -0.0458017 -3.97762
lowerback -4.00359 -0.306756 1.39191
upperback -0.258738 -0.550804 3.75775
thorax 2.00431 -0.278539 3.05659
lowerneck -21.4567 -4.38604 -12.2568
upperneck 23.4188 -5.24539 11.6065
head 11.8942 -2.00618 5.5839
rclavicle -6.11263e-015 3.02153e-014
rhumerus -28.2988 21.6149 -87.5467
rradius 34.4898
rwrist -17.7989
rhand -30.4657 -25.6914
rfingers 7.12502
rthumb -3.76714 -55.6378
lclavicle -6.11263e-015 3.02153e-014
lhumerus -32.8183 -8.17905 92.1652
lradius 20.3833
lwrist -5.19624
lhand -9.82963 -23.5135
lfingers 7.12502
lthumb 16.1477 5.83382
rfemur -11.6344 2.327 30.8603
rtibia 26.1882
rfoot -18.5437 2.43178
rtoes -15.14
lfemur -36.7503 10.3062 -19.0294
ltibia 62.7551
lfoot -15.1938 14.3457
ltoes -9.1737
281
root 8.72946 17.0219 10.7205 6.30712 -0.261403 -4.62408
lowerback -4.22284 -0.0864873 2.2135
upperback -0.139276 -0.311957 3.85384
thorax 2.23645 -0.151896 2.70813
lowerneck -21.9611 -4.55035 -12.2418
upperneck 23.6233 -5.44348 11.611
head 12.1025 -2.08019 5.5607
rclavicle 1.30204e-014 -1.27222e-014
rhumerus -27.1673 22.0673 -87.2905
rradius 34.9429
rwrist -17.9431
rhand -30.29 -26.8776
rfingers 7.12502
rthumb -3.59751 -56.827
lclavicle 1.30204e-014 -1.27222e-014
lhumerus -33.6216 -7.72474 91.8983
lradius 20.3077
lwrist -5.6078
lhand -9.4598 -23.4945
lfingers 7.12502
lthumb 16.5038 5.82363
rfemur -10.7266 2.28271 31.5204
rtibia 25.4878
rfoot -18.527 2.48028
rtoes -13.6724
lfemur -37.6518 9.91563 -18.342
ltibia 60.7745
lfoot -15.8992 13.8462
ltoes -7.26769
282
root 8.73517 17.015 10.8926 6.4901 -0.401755 -5.28936
lowerback -4.34704 0.119945 2.93274
upperback -0.217054 -0.0774507 3.98436
thorax 2.21832 -0.0281033 2.45393
lowerneck -21.8375 -4.64369 -12.2959
upperneck 23.7142 -5.57591 11.5945
head 12.1344 -2.15049 5.54417
rclavicle -9.39258e-015 2.38542e-015
rhumerus -26.4592 22.4993 -87.0963
rradius 35.5018
rwrist -18.064
rhand -30.1031 -27.9668
rfingers 7.12502
rthumb -3.41706 -57.9191
lclavicle -9.39258e-015 2.38542e-015
lhumerus -34.8056 -7.74668 91.9507
lradius 20.2021
lwrist -5.46328
lhand -9.28016 -23.4003
lfingers 7.12502
lthumb 16.6767 5.90336
rfemur -9.88389 2.37055 32.2473
rtibia 24.8702
rfoot -18.459 2.56054
rtoes -12.6108
lfemur -38.4991 9.50291 -17.5746
ltibia 58.6018
lfoot -16.5017 13.3114
ltoes -6.84908
283
root 8.74263 17.0204 11.0638 6.44434 -0.793637 -4.64426
lowerback -4.2589 0.22538 2.31545
upperback -0.193482 0.102401 3.74526
thorax 2.18816 0.0565418 2.56337
lowerneck -21.5971 -4.60226 -12.3884
upperneck 23.6106 -5.54551 11.7373
head 12.0499 -2.13384 5.61685
rclavicle -5.96354e-016 -3.97569e-015
rhumerus -25.6338 23.2135 -87.034
rradius 35.936
rwrist -17.9834
rhand -29.7131 -28.6322
rfingers 7.12502
rthumb -3.04042 -58.5903
lclavicle -5.96354e-016 -3.97569e-015
lhumerus -35.9504 -7.37744 91.7698
lradius 20.1173
lwrist -5.43176
lhand -9.12545 -23.4648
lfingers 7.12502
lthumb 16.8257 5.82619
rfemur -8.75908 2.26211 31.511
rtibia 24.1671
rfoot -18.2716 2.86252
rtoes -11.8553
lfemur -38.7306 9.24488 -18.419
ltibia 56.0378
lfoot -15.6451 13.8256
ltoes -7.25891
